<?xml version="1.0" encoding="UTF-8" standalone="no"?>
<svg
   version="1.1"
   x="0px"
   y="0px"
   width="1000"
   height="351.13293"
   xml:space="preserve"
   id="svg15"
   sodipodi:docname="reslientdb.svg"
   inkscape:version="1.2.2 (b0a8486541, 2022-12-01)"
   xmlns:inkscape="http://www.inkscape.org/namespaces/inkscape"
   xmlns:sodipodi="http://sodipodi.sourceforge.net/DTD/sodipodi-0.dtd"
   xmlns="http://www.w3.org/2000/svg"
   xmlns:svg="http://www.w3.org/2000/svg"><defs
   id="defs19" /><sodipodi:namedview
   id="namedview17"
   pagecolor="#505050"
   bordercolor="#eeeeee"
   borderopacity="1"
   inkscape:showpageshadow="0"
   inkscape:pageopacity="0"
   inkscape:pagecheckerboard="0"
   inkscape:deskcolor="#505050"
   showgrid="false"
   inkscape:zoom="1.1456311"
   inkscape:cx="406.7627"
   inkscape:cy="82.050845"
   inkscape:window-width="2466"
   inkscape:window-height="1412"
   inkscape:window-x="2560"
   inkscape:window-y="0"
   inkscape:window-maximized="1"
   inkscape:current-layer="svg15" />
<g
   transform="matrix(2.9866891,0,0,2.9866859,4.7382969e-7,2.1287574e-4)"
   id="g9"
   style="stroke-width:0.469907"><linearGradient
     id="SVGID_1"
     x1="0"
     y1="-6.6276873e-05"
     x2="109.55832"
     y2="-6.6276873e-05"
     gradientTransform="scale(0.93188723,1.0730912)"
     gradientUnits="userSpaceOnUse"><stop
       offset="0%"
       stop-color="#91c052"
       stop-opacity="1"
       id="stop2" /><stop
       offset="100%"
       stop-color="#21aa95"
       stop-opacity="1"
       id="stop4" /></linearGradient><path
     d="M 98.008,26.951 C 93.238,24.197 88.47,21.444 83.7,18.69 73.606,12.863 63.513,7.035 53.419,1.207 52.804,0.853 52.19,0.498 51.575,0.143 51.393,0.038 51.214,-0.002 51.046,0 50.879,-0.001 50.702,0.039 50.522,0.143 33.854,9.767 17.185,19.39 0.517,29.013 0.199,29.196 0,29.548 0,29.914 c 0,3.322 0,6.645 0,9.967 0,0.569 0.475,1.044 1.043,1.044 18.119,0 36.237,0 54.356,0 3.711,0 7.645,-0.637 9.955,3.081 1.382,2.225 0.985,7.659 0.48,10.12 -0.633,3.09 -3.35,3.614 -6.016,3.614 -9.085,0 -18.17,0 -27.254,0 -0.984,0 -1.282,1.104 -0.738,1.782 10.019,12.459 20.036,24.919 30.054,37.379 -3.387,1.955 -6.773,3.91 -10.159,5.865 -0.309,0.178 -0.497,0.32 -0.611,0.436 -0.039,-0.029 -0.082,-0.06 -0.138,-0.092 -1.261,-0.728 -2.522,-1.456 -3.783,-2.184 -9.362,-5.405 -18.724,-10.81 -28.085,-16.215 -2.161,-1.247 -4.321,-2.495 -6.482,-3.742 0,-0.002 0,-0.002 0,-0.004 0,-0.713 0,-1.426 0,-2.139 0,-2.279 0,-4.559 0,-6.838 0,-8.808 0,-14.553 0,-23.361 0,-0.568 -0.475,-1.043 -1.043,-1.043 -3.512,0 -7.023,0 -10.535,0 C 0.475,47.585 0,48.06 0,48.628 c 0,14.03 0,24.997 0,39.026 0,0.366 0.199,0.718 0.517,0.901 16.668,9.623 33.342,19.236 50.005,28.87 0.325,0.188 0.729,0.188 1.053,0 9.408,-5.432 19.03,-10.599 28.247,-16.346 0.618,-0.386 0.633,-1.109 0.211,-1.64 C 72.294,89.703 64.445,80.055 56.615,70.392 64.151,70.568 72.948,71.189 76.731,63.414 78.972,58.807 78.636,53.117 78.586,48.143 78.523,41.61 76.503,36.049 71.228,31.927 64.669,26.801 54.852,28.3 47.074,28.3 c -6.694,0 -13.388,0 -20.083,0 7.712,-4.452 15.424,-8.904 23.135,-13.356 0.308,-0.178 0.615,-0.355 0.922,-0.533 1.448,0.837 2.896,1.673 4.343,2.509 5.436,3.138 10.871,6.276 16.308,9.415 5.077,2.932 10.155,5.863 15.233,8.795 0.848,0.489 1.694,0.979 2.541,1.467 0,0.681 0,1.36 0,2.04 0,12.041 0,24.082 0,36.122 0,1.762 0,3.523 0,5.285 0,0.31 0,0.619 0,0.93 -0.07,0.037 -0.148,0.08 -0.245,0.136 -4.03,2.327 -4.962,2.791 -8.993,5.118 -0.632,0.365 -0.62,1.124 -0.211,1.64 2.209,2.778 4.418,5.558 6.627,8.337 0.289,0.363 0.894,0.378 1.265,0.163 5.587,-3.226 8.075,-4.588 13.663,-7.813 0.318,-0.184 0.517,-0.535 0.517,-0.901 0,-19.163 0,-38.327 0,-57.49 0,-1.593 -2.968,-2.566 -4.088,-3.213 z"
     fill="url(#SVGID_1)"
     id="path7"
     style="fill:url(#SVGID_1);stroke-width:0.469907" /></g><g
   transform="matrix(2.1280796,0,0,2.1280796,317.68238,254.2724)"
   id="g13"
   style="stroke-width:0.469907"><g
     aria-label="ResilientDB"
     id="text11"
     style="font-size:62px;font-family:Fontastique;letter-spacing:0;fill:#21aa95;stroke-width:0.220813"><path
       d="m 10.664,-6.014 q 0,1.922 0,3.1 0.062,1.116 0.124,1.798 Q 10.85,-0.372 10.912,0 7.068,0 5.084,-1.55 3.1,-3.162 3.1,-6.882 v -26.226 q 0,-2.976 1.054,-4.96 1.054,-1.984 2.852,-3.162 1.86,-1.24 4.402,-1.736 2.542,-0.558 5.518,-0.744 1.922,-0.124 4.092,0.186 2.17,0.248 4.278,0.992 2.17,0.682 4.092,1.798 1.922,1.116 3.348,2.79 1.488,1.612 2.294,3.72 0.868,2.108 0.744,4.712 -0.124,3.658 -2.356,6.51 -2.17,2.852 -6.324,4.092 1.426,0.496 2.418,1.612 0.992,1.054 1.736,2.604 0.806,1.488 1.55,3.286 0.806,1.798 1.736,3.658 0.682,1.426 1.488,2.604 0.806,1.116 1.488,1.984 0.744,0.992 1.55,1.736 -0.558,0.558 -1.24,0.93 -0.682,0.31 -1.612,0.496 -0.93,0.186 -2.232,0 -1.488,-0.186 -2.728,-0.868 -1.24,-0.682 -2.48,-2.108 -1.24,-1.426 -2.666,-3.782 -1.364,-2.356 -3.162,-5.89 -1.054,-1.984 -2.542,-2.976 -1.488,-1.054 -3.658,-1.674 -0.372,-0.124 -0.744,-0.186 -0.31,-0.062 -0.62,-0.186 -0.434,-0.062 -1.24,-0.186 -0.744,-0.186 -1.55,-0.31 -0.93,-0.186 -1.922,-0.372 z m 6.262,-31.62 q -1.86,0.186 -3.1,0.682 -1.178,0.434 -1.922,1.116 -0.682,0.62 -0.992,1.426 -0.31,0.806 -0.31,1.612 0,0.806 0,2.17 0,1.302 0,2.666 0.062,1.364 0.062,2.542 0,1.116 0,1.488 1.426,0.31 2.914,0.558 1.24,0.186 2.728,0.372 1.488,0.124 2.914,0.124 3.906,0 6.138,-1.55 2.232,-1.55 2.666,-5.084 0.248,-2.294 -0.682,-3.906 -0.93,-1.674 -2.542,-2.604 -1.612,-0.992 -3.72,-1.364 -2.108,-0.434 -4.154,-0.248 z"
       id="path301" /><path
       d="m 65.720044,-6.014 q 0.744,0.434 1.426,1.488 l 0.186,0.186 -0.186,0.186 q -2.046,2.232 -4.898,3.534 -2.79,1.24 -6.076,1.24 -2.852,0 -5.394,-1.116 -2.48,-1.178 -4.402,-3.224 -1.86,-1.984 -2.976,-4.65 -1.054,-2.728 -1.054,-5.828 0,-3.1 0.93,-5.766 0.992,-2.728 2.79,-4.774 1.798,-1.984 4.34,-3.162 2.604,-1.178 5.766,-1.178 1.736,0 3.782,0.558 2.108,0.496 3.906,1.674 1.798,1.116 2.976,2.976 1.178,1.86 1.178,4.464 0,2.542 -1.302,4.154 -1.302,1.55 -3.1,2.48 -1.798,0.868 -3.844,1.24 -1.984,0.31 -3.472,0.31 -2.294,0 -4.03,-0.248 -1.674,-0.31 -2.294,-0.434 0.248,2.232 0.992,3.658 0.744,1.364 1.674,2.17 0.93,0.806 1.86,1.116 0.93,0.248 1.674,0.248 1.302,0 2.48,-0.248 1.178,-0.248 2.108,-0.558 0.93,-0.31 1.736,-0.62 0.868,-0.31 1.674,-0.31 0.868,0 1.55,0.434 z m -9.548,-17.794 q -0.682,0.062 -1.612,0.372 -0.93,0.248 -1.86,0.992 -0.868,0.744 -1.612,2.108 -0.744,1.364 -1.054,3.472 0.992,0.31 2.79,0.62 1.86,0.248 3.658,0.062 1.86,-0.186 3.224,-1.054 1.426,-0.868 1.55,-2.914 0.124,-1.55 -1.24,-2.666 -1.302,-1.116 -3.844,-0.992 z"
       id="path303" /><path
       d="m 86.242116,-7.254 q 0.124,-1.054 -0.62,-1.736 -0.682,-0.744 -2.046,-1.364 -1.302,-0.682 -3.1,-1.426 -1.798,-0.744 -3.782,-1.984 -1.488,-0.868 -2.48,-2.046 -0.93,-1.24 -1.364,-2.604 -0.434,-1.426 -0.372,-2.852 0.062,-1.488 0.682,-2.914 0.62,-1.364 1.612,-2.294 0.992,-0.93 2.17,-1.488 1.24,-0.62 2.48,-0.868 1.24,-0.248 2.294,-0.248 h 0.744 q 3.286,0.186 6.014,1.612 2.728,1.426 4.65,3.782 l 0.186,0.186 -0.186,0.248 q -0.62,0.868 -1.364,1.302 -0.682,0.434 -1.55,0.434 -0.868,0 -1.674,-0.31 -0.806,-0.372 -1.736,-0.744 -1.178,-0.496 -2.232,-0.806 -0.992,-0.372 -2.046,-0.372 -1.364,0 -2.046,0.62 -0.682,0.558 -0.806,1.364 -0.124,1.178 0.744,1.984 0.868,0.744 2.542,1.426 1.922,0.806 4.092,1.798 2.17,0.93 3.844,2.356 1.674,1.364 2.542,3.348 0.868,1.922 0.186,4.712 -0.31,1.116 -1.054,2.356 -0.744,1.178 -2.108,2.17 -1.302,0.992 -3.224,1.612 -1.86,0.682 -4.402,0.682 -0.496,0 -0.806,-0.062 -2.976,-0.124 -5.89,-1.55 -2.852,-1.426 -4.774,-3.782 l -0.186,-0.186 0.186,-0.248 q 0.31,-0.496 0.682,-0.806 0.372,-0.31 0.682,-0.558 0.744,-0.372 1.488,-0.372 0.868,0 1.674,0.372 0.806,0.31 1.736,0.682 0.868,0.434 1.922,0.744 1.116,0.31 2.418,0.434 2.232,0 3.162,-0.868 0.992,-0.868 1.116,-1.736 z"
       id="path305" /><path
       d="m 105.95812,-37.572 q -1.302,2.17 -3.596,2.17 -0.992,0 -1.86,-0.434 -0.929997,-0.558 -1.425997,-1.426 -0.496,-0.93 -0.496,-1.984 0,-1.178 0.558,-2.108 0.558,-1.054 1.549997,-1.612 0.992,-0.62 2.046,-0.62 0.93,0 1.798,0.496 0.992,0.496 1.488,1.426 0.496,0.93 0.496,1.984 0,1.116 -0.558,2.108 z m 4.836,31.992 q -0.31,0.434 -1.054,0.744 -0.744,0.248 -1.488,0.124 -0.744,-0.124 -1.302,-0.744 -0.558,-0.682 -0.558,-2.17 v -14.818 q 0,-1.86 0,-2.976 0.062,-1.178 0.124,-1.86 0.062,-0.744 0.124,-1.178 -3.844,0 -5.828,1.612 -1.983997,1.612 -1.983997,5.332 l -0.062,14.632 q 0,1.55 0.434,2.976 0.496,1.426 1.425997,2.48 0.992,1.054 2.418,1.612 1.426,0.62 3.348,0.434 1.984,-0.124 2.914,-1.116 0.93,-1.054 1.24,-2.17 0.372,-1.302 0.248,-2.914 z"
       id="path307" /><path
       d="m 126.60414,-5.58 q 0.124,1.612 -0.248,2.914 -0.31,1.116 -1.24,2.17 -0.93,0.992 -2.914,1.116 -1.922,0.186 -3.348,-0.434 -1.426,-0.558 -2.418,-1.612 -0.93,-1.054 -1.426,-2.48 -0.434,-1.426 -0.434,-2.976 v -30.194 q -0.062,-1.86 -0.124,-2.976 0,-1.178 -0.062,-1.86 -0.062,-0.744 -0.124,-1.178 3.844,0 5.89,1.612 2.046,1.612 2.046,5.27 v 28.582 q 0,1.488 0.558,2.17 0.558,0.62 1.302,0.744 0.744,0.124 1.488,-0.124 0.744,-0.31 1.054,-0.744 z"
       id="path309" /><path
       d="m 138.69412,-37.572 q -1.302,2.17 -3.596,2.17 -0.992,0 -1.86,-0.434 -0.93,-0.558 -1.426,-1.426 -0.496,-0.93 -0.496,-1.984 0,-1.178 0.558,-2.108 0.558,-1.054 1.55,-1.612 0.992,-0.62 2.046,-0.62 0.93,0 1.798,0.496 0.992,0.496 1.488,1.426 0.496,0.93 0.496,1.984 0,1.116 -0.558,2.108 z m 4.836,31.992 q -0.31,0.434 -1.054,0.744 -0.744,0.248 -1.488,0.124 -0.744,-0.124 -1.302,-0.744 -0.558,-0.682 -0.558,-2.17 v -14.818 q 0,-1.86 0,-2.976 0.062,-1.178 0.124,-1.86 0.062,-0.744 0.124,-1.178 -3.844,0 -5.828,1.612 -1.984,1.612 -1.984,5.332 l -0.062,14.632 q 0,1.55 0.434,2.976 0.496,1.426 1.426,2.48 0.992,1.054 2.418,1.612 1.426,0.62 3.348,0.434 1.984,-0.124 2.914,-1.116 0.93,-1.054 1.24,-2.17 0.372,-1.302 0.248,-2.914 z"
       id="path311" /><path
       d="m 169.75613,-6.014 q 0.744,0.434 1.426,1.488 l 0.186,0.186 -0.186,0.186 q -2.046,2.232 -4.898,3.534 -2.79,1.24 -6.076,1.24 -2.852,0 -5.394,-1.116 -2.48,-1.178 -4.402,-3.224 -1.86,-1.984 -2.976,-4.65 -1.054,-2.728 -1.054,-5.828 0,-3.1 0.93,-5.766 0.992,-2.728 2.79,-4.774 1.798,-1.984 4.34,-3.162 2.604,-1.178 5.766,-1.178 1.736,0 3.782,0.558 2.108,0.496 3.906,1.674 1.798,1.116 2.976,2.976 1.178,1.86 1.178,4.464 0,2.542 -1.302,4.154 -1.302,1.55 -3.1,2.48 -1.798,0.868 -3.844,1.24 -1.984,0.31 -3.472,0.31 -2.294,0 -4.03,-0.248 -1.674,-0.31 -2.294,-0.434 0.248,2.232 0.992,3.658 0.744,1.364 1.674,2.17 0.93,0.806 1.86,1.116 0.93,0.248 1.674,0.248 1.302,0 2.48,-0.248 1.178,-0.248 2.108,-0.558 0.93,-0.31 1.736,-0.62 0.868,-0.31 1.674,-0.31 0.868,0 1.55,0.434 z m -9.548,-17.794 q -0.682,0.062 -1.612,0.372 -0.93,0.248 -1.86,0.992 -0.868,0.744 -1.612,2.108 -0.744,1.364 -1.054,3.472 0.992,0.31 2.79,0.62 1.86,0.248 3.658,0.062 1.86,-0.186 3.224,-1.054 1.426,-0.868 1.55,-2.914 0.124,-1.55 -1.24,-2.666 -1.302,-1.116 -3.844,-0.992 z"
       id="path313" /><path
       d="m 176.82417,-15.624 q 0,-4.154 1.178,-6.758 1.24,-2.666 3.1,-4.154 1.922,-1.488 4.278,-1.984 2.418,-0.558 4.836,-0.558 2.356,0 4.774,0.558 2.418,0.496 4.34,1.984 1.984,1.488 3.162,4.154 1.24,2.604 1.24,6.758 L 203.98017,0 q -3.782,0 -5.828,-1.612 -2.046,-1.612 -2.046,-5.27 l 0.062,-8.742 q 0,-2.604 -0.558,-4.154 -0.496,-1.612 -1.364,-2.48 -0.868,-0.93 -1.922,-1.24 -1.054,-0.31 -2.108,-0.31 -1.054,0 -2.108,0.31 -0.992,0.31 -1.86,1.24 -0.806,0.868 -1.364,2.48 -0.496,1.55 -0.496,4.154 v 9.61 q 0.062,1.86 0.062,3.038 0.062,1.178 0.124,1.86 0.062,0.744 0.124,1.116 -3.844,0 -5.89,-1.612 -2.046,-1.612 -2.046,-5.27 z"
       id="path315" /><path
       d="m 225.99011,-5.456 q 0,0.186 0.062,0.434 0.124,0.496 0.124,0.93 0,1.116 -0.496,2.046 -0.496,0.868 -1.364,1.488 -1.736,1.24 -4.216,1.24 -2.046,0 -4.03,-0.93 -1.984,-0.93 -3.596,-2.79 -1.612,-1.86 -2.604,-4.588 -0.93,-2.79 -0.93,-6.51 l 0.062,-17.918 q 0,-3.72 1.984,-5.332 1.984,-1.612 5.766,-1.612 -0.062,0.434 -0.124,1.178 -0.062,0.682 -0.124,1.86 0,1.116 0,2.976 l 0.062,3.906 h 8.308 q 0,2.79 -1.55,4.464 -1.55,1.674 -4.402,1.674 h -2.356 l -0.062,8.804 q 0,2.604 0.434,4.402 0.496,1.736 1.302,2.852 1.674,2.108 4.34,2.108 1.116,0 2.232,-0.31 0.62,-0.186 1.178,-0.372 z"
       id="path317" /><path
       d="m 243.59805,-43.71 q 4.092,0 7.874,1.426 3.844,1.364 6.82,4.154 2.976,2.79 4.712,6.944 1.798,4.154 1.798,9.61 0,5.456 -1.798,9.61 -1.798,4.154 -4.774,6.944 -2.976,2.79 -6.82,4.216 -3.844,1.426 -7.936,1.426 -1.054,0 -2.666,-0.062 -1.612,0 -2.914,-0.124 -0.992,-0.124 -1.86,-0.372 -0.868,-0.186 -1.674,-0.496 -2.48,-0.992 -3.72,-3.224 -0.682,-1.24 -1.054,-2.852 -0.31,-1.612 -0.31,-3.782 l 0.124,-22.444 q 0,-4.216 1.302,-6.634 1.24,-2.294 3.782,-3.286 1.488,-0.62 3.534,-0.806 1.302,-0.186 2.852,-0.186 1.612,-0.062 2.728,-0.062 z m 0,38.998 q 2.418,0 4.712,-0.806 2.356,-0.868 4.154,-2.79 1.86,-1.984 2.976,-5.208 1.178,-3.224 1.178,-8.06 0,-4.836 -1.178,-8.06 -1.116,-3.224 -2.976,-5.146 -1.798,-1.984 -4.154,-2.79 -2.294,-0.806 -4.712,-0.806 -0.93,0 -2.108,0 -1.116,0 -2.108,0.31 -0.992,0.248 -1.674,0.868 -0.682,0.62 -0.682,1.86 v 27.59 q 0,1.24 0.682,1.86 0.682,0.62 1.674,0.93 0.992,0.248 2.108,0.248 1.178,0 2.108,0 z"
       id="path319" /><path
       d="m 286.68808,0.682 q -4.03,0 -7.254,-1.116 -3.224,-1.178 -5.518,-3.596 -2.294,-2.48 -3.534,-6.324 -1.24,-3.906 -1.24,-9.424 v -12.958 q 0,-4.216 1.302,-6.634 1.24,-2.294 3.782,-3.286 1.488,-0.62 3.534,-0.806 1.302,-0.186 2.852,-0.186 1.612,-0.062 2.728,-0.062 3.224,0 5.58,0.93 2.356,0.868 3.906,2.356 1.612,1.488 2.356,3.41 0.806,1.922 0.806,4.03 0,1.984 -0.744,3.72 -0.744,1.674 -2.108,3.1 1.86,0.682 3.41,1.798 1.612,1.116 2.79,2.728 1.178,1.55 1.86,3.596 0.682,2.046 0.682,4.526 0,2.79 -1.116,5.332 -1.054,2.542 -3.038,4.526 -1.984,1.984 -4.774,3.162 -2.79,1.178 -6.262,1.178 z m -9.92,-28.148 h 5.27 q 3.348,0 5.208,-1.24 1.922,-1.24 1.922,-4.216 0,-1.488 -0.558,-2.48 -0.496,-1.054 -1.364,-1.674 -0.806,-0.682 -1.86,-0.992 -1.054,-0.31 -2.046,-0.31 -0.744,0 -1.86,0 -1.116,0 -2.17,0.31 -1.054,0.248 -1.798,0.868 -0.744,0.62 -0.744,1.86 z m 9.92,22.01 q 1.984,0 3.41,-0.62 1.426,-0.682 2.294,-1.736 0.93,-1.116 1.302,-2.542 0.434,-1.488 0.434,-3.162 0,-2.728 -0.93,-4.464 -0.93,-1.798 -2.418,-2.728 -1.426,-0.992 -3.224,-1.364 -1.736,-0.372 -3.348,-0.31 -1.488,0.062 -2.852,0.062 -1.302,0 -2.356,0 -1.178,0 -2.232,-0.062 v 2.666 q -0.124,4.154 0.496,6.944 0.62,2.728 1.922,4.34 1.302,1.612 3.162,2.294 1.922,0.682 4.34,0.682 z"
       id="path321" /></g></g>
</svg>
